PathFileType	4	(X/Y/Z)	/Volumes/GoogleDrive/My Drive/Research/Stanford/Projects/Digital Athlete Project/Sprinting/Sprint Simulation/sprinter/subjects/JA1/experimental_data/TRC/run0350cms.trc
DataRate	CameraRate	NumFrames	NumMarkers	Units	OrigDataRate	OrigDataStartFrame	OrigNumFrames
250.000000	250.000000	6	53	mm	250.000000	523	836
Frame#	Time	C7			RSH			LSH			MAN			T7			LARM			LELB			LFOREARM			LWR			RARM			RELB			RFOREARM			RWR			RASI			LASI			SACR			P1			P2			P3			LTHLP			LTHLD			LTHAP			LTHAD			LLEPI			LPAT			LTIAP			LTIAD			LTILAT			LLMAL			LHEEL			LMFS			LMFL			LP1MT			LTOE			LP5MT			RTHLP			RTHLD			RTHAP			RTHAD			RLEPI			RPAT			RTIAP			RTIAD			RTILAT			RLMAL			RHEEL			RMFS			RMFL			RP1MT			RTOE			RP5MT			x52			x53			
		X1	Y1	Z1	X2	Y2	Z2	X3	Y3	Z3	X4	Y4	Z4	X5	Y5	Z5	X6	Y6	Z6	X7	Y7	Z7	X8	Y8	Z8	X9	Y9	Z9	X10	Y10	Z10	X11	Y11	Z11	X12	Y12	Z12	X13	Y13	Z13	X14	Y14	Z14	X15	Y15	Z15	X16	Y16	Z16	X17	Y17	Z17	X18	Y18	Z18	X19	Y19	Z19	X20	Y20	Z20	X21	Y21	Z21	X22	Y22	Z22	X23	Y23	Z23	X24	Y24	Z24	X25	Y25	Z25	X26	Y26	Z26	X27	Y27	Z27	X28	Y28	Z28	X29	Y29	Z29	X30	Y30	Z30	X31	Y31	Z31	X32	Y32	Z32	X33	Y33	Z33	X34	Y34	Z34	X35	Y35	Z35	X36	Y36	Z36	X37	Y37	Z37	X38	Y38	Z38	X39	Y39	Z39	X40	Y40	Z40	X41	Y41	Z41	X42	Y42	Z42	X43	Y43	Z43	X44	Y44	Z44	X45	Y45	Z45	X46	Y46	Z46	X47	Y47	Z47	X48	Y48	Z48	X49	Y49	Z49	X50	Y50	Z50	X51	Y51	Z51	X52	Y52	Z52	X53	Y53	Z53	
523	2.092000	1974.054810	1481.937378	220.566498	2024.626709	1466.101196	387.447906	1981.049194	1450.695801	50.144539	2110.957275	1370.369995	209.657593	1890.152588	1302.421387	234.282608	1907.964111	1274.517578	-52.253830	1845.630127	1157.349365	-94.162292	1921.787720	1031.706543	-76.637611	1973.360229	913.922180	-54.691849	1968.975586	1298.013306	490.408173	1916.994995	1181.289185	543.399475	2029.939209	1102.230835	506.714905	2132.627441	1032.599487	469.654419	2076.192383	1002.634216	323.977448	2047.814209	1016.680664	111.323914	1879.352661	1036.467407	247.155060	1860.934448	1010.526184	194.582321	1874.451904	1004.413635	299.311615	1843.945557	948.675476	246.179001	2048.055908	715.172913	51.320370	2099.671875	616.073242	69.978790	2175.946045	760.322754	110.756546	2203.466797	654.930664	127.282829	2144.322754	507.689606	96.280830	2227.498291	528.404663	157.858368	2126.778320	342.168610	188.580002	2070.758057	214.692963	203.085190	2063.477051	285.205688	117.072403	1989.607056	87.901863	161.154251	1916.781006	61.487583	208.252274	2085.645020	75.292847	218.376175	2056.075439	49.497185	156.103821	2137.898193	30.567299	254.573502	2185.518066	36.670113	219.928024	2117.163574	14.193493	128.105179	2029.003906	714.267761	408.653625	2052.171631	605.092407	391.098114	2139.190674	707.578491	314.152283	2149.382080	608.814575	306.862640	2056.648193	477.137207	352.232025	2128.221680	432.878265	294.993927	1863.905640	439.499268	271.959167	1739.605957	452.472382	264.042511	1851.082031	487.559631	350.741791	1617.170288	490.813843	325.613922	1588.617798	550.330505	263.103241	1604.317749	378.100403	300.488678	1576.522827	432.149811	344.754547	1549.016724	317.508148	273.300781	1563.565918	296.619080	317.394012	1534.114136	371.440704	386.271240	1999.571899	854.058228	-43.537914	2190.054199	993.659119	448.928894
524	2.096000	1988.200073	1480.067505	219.934402	2038.127319	1464.129395	386.988342	1996.344238	1447.988403	49.518612	2124.990967	1367.946533	210.184464	1903.519409	1300.886719	233.673645	1926.226563	1271.098511	-53.871677	1867.513306	1151.393066	-95.991470	1945.185181	1026.871338	-77.375763	1997.991699	910.066467	-55.493935	1980.323120	1296.815308	489.374146	1926.316528	1180.839722	542.425476	2037.767090	1098.017334	507.668640	2137.966064	1023.720581	473.202942	2088.618164	1000.949646	323.833160	2060.045166	1014.808594	110.959160	1891.906860	1033.309204	247.279419	1872.978760	1007.824341	195.205872	1886.448242	1001.255066	299.971863	1856.070923	945.868896	246.404602	2058.312500	712.829956	51.426853	2108.975830	613.156921	70.051292	2185.419678	758.048584	111.277832	2212.839600	651.994751	126.884338	2151.513672	504.925812	96.419640	2236.170410	525.173096	155.732101	2132.719971	339.314178	188.060608	2073.905518	213.108994	202.262527	2069.025146	283.525482	116.469513	1990.339478	87.410789	159.994080	1917.402466	61.867985	206.502609	2085.498779	74.986336	217.698090	2056.182373	49.167740	155.558701	2137.836182	30.600044	254.384796	2185.634277	36.351643	219.911530	2117.018799	13.838934	127.908333	2046.853271	713.481506	409.211548	2072.981445	604.724243	391.676849	2157.162598	708.816650	313.971497	2169.917480	610.475464	307.285339	2080.432617	477.009521	352.973236	2152.253418	434.001526	295.497101	1887.519653	439.379608	271.677032	1763.522461	452.463745	263.942719	1875.274292	486.787476	351.520660	1640.969849	490.241821	326.307953	1612.455200	550.041077	264.209656	1629.190430	377.555542	299.447693	1600.750977	430.856812	344.459991	1573.757568	317.164886	271.529083	1588.410156	295.689667	315.342804	1558.856445	369.528320	385.030212	2024.830688	850.700378	-44.372494	2194.000732	982.171204	453.928528
525	2.100000	2002.218628	1478.391357	219.157730	2051.520020	1462.195801	386.778046	2011.534302	1446.188110	48.625278	2139.063965	1365.710815	210.588547	1916.905151	1299.475952	232.970871	1945.444946	1267.156006	-54.757092	1889.451416	1145.979614	-97.666733	1968.699951	1022.688660	-77.915359	2022.752075	906.942505	-56.139793	1991.375000	1295.540771	488.402832	1935.885010	1180.196777	541.130432	2045.818970	1093.984009	508.385925	2143.208252	1015.331055	476.622559	2101.296387	999.364929	323.546600	2071.962158	1013.113464	110.608742	1904.992432	1030.525879	247.241425	1885.157349	1005.591003	195.775223	1898.381226	998.515198	301.087677	1868.307373	943.358765	246.806458	2068.510010	710.468750	51.473988	2117.583008	610.041687	70.198990	2194.540039	756.013855	111.374763	2221.979492	648.789856	126.555092	2159.490967	502.126221	96.105797	2244.931152	521.795471	154.051392	2137.865723	336.764282	187.927551	2076.390381	211.747604	201.904739	2074.499023	281.477570	115.758270	1990.929199	87.103409	159.136917	1917.227417	62.360195	205.447220	2085.989258	75.052124	216.794128	2056.416748	48.930042	154.873001	2137.654541	30.435238	254.196930	2185.542969	36.377914	220.041138	2117.255127	13.599595	127.694145	2065.398193	713.000549	409.557709	2093.612793	604.859253	392.482910	2173.803711	710.515686	313.635834	2189.918701	612.669373	307.654236	2103.796631	477.410614	353.444763	2176.565186	435.824341	295.896057	1911.530151	439.484985	271.616913	1787.820312	452.339325	263.924988	1899.420410	486.266907	352.148926	1666.196289	488.287048	325.102264	1635.753052	549.269958	265.323853	1653.313110	376.662781	297.941956	1624.976318	429.055573	344.121765	1598.705322	315.866821	269.636871	1614.077881	294.372772	313.059906	1583.259277	366.847748	383.977203	2050.224121	848.114502	-45.072361	2197.671631	971.345581	458.859344
526	2.104000	2016.165527	1476.780640	218.577713	2064.644531	1460.827881	386.363892	2026.844604	1444.165405	47.943611	2152.473633	1363.702026	210.689545	1930.260010	1298.267944	232.278000	1964.101562	1263.681030	-55.696121	1911.626587	1141.214355	-98.974350	1991.927124	1019.087524	-78.375320	2047.457520	904.615112	-56.536114	2002.169312	1294.889160	487.742554	1945.078491	1180.101318	540.140381	2053.474609	1090.780151	509.189117	2147.738037	1007.661133	480.274963	2113.978760	998.558777	323.131378	2083.947510	1011.609192	110.337997	1916.747192	1028.909302	248.498764	1897.379883	1003.881897	196.348206	1910.990601	996.319519	301.238495	1880.527466	941.503357	247.477539	2078.239502	708.078308	51.647385	2125.493164	606.846680	70.358398	2204.574219	753.932434	111.829826	2231.732422	645.483582	126.586189	2167.068604	499.119659	95.675179	2253.197754	518.103027	153.028778	2142.215332	334.505219	187.848206	2078.088623	210.607086	201.895523	2079.677002	279.405487	115.161667	1991.508179	86.971672	158.241501	1917.301514	62.980717	204.454315	2085.791504	74.844048	216.419296	2056.343750	48.536560	154.464478	2137.587646	30.460115	254.106903	2185.678223	36.110920	219.938278	2117.314941	13.358531	127.624641	2083.794922	712.902039	409.865662	2114.649170	605.552856	393.122894	2191.614258	712.889526	313.509247	2209.529297	615.493896	307.740601	2127.168701	478.140656	353.650085	2200.211914	438.154236	296.110046	1936.192871	439.573273	271.948914	1811.815674	452.081451	263.868378	1923.400269	485.856812	352.834778	1690.205322	486.270874	325.110962	1659.101440	548.131653	266.306915	1678.404053	375.268768	297.132263	1649.297119	426.923615	343.661438	1624.346313	314.597168	267.854584	1639.563110	292.382111	310.901672	1608.212891	363.735992	382.608887	2075.680908	846.434448	-45.436337	2200.453613	961.178040	464.105164
527	2.108000	2030.173950	1475.469971	217.729599	2077.814453	1459.546143	386.077667	2041.992188	1442.276978	47.276596	2166.084229	1362.230225	210.708939	1943.717041	1297.339233	231.666931	1983.359863	1260.849365	-56.442638	1933.310913	1137.003174	-100.224365	2015.915771	1016.203796	-78.445732	2072.906250	903.059998	-56.557213	2013.447021	1294.224731	486.807922	1954.188232	1180.258789	539.021484	2060.842529	1087.958496	509.985291	2151.974365	1000.695007	483.854645	2126.494141	997.607544	322.874237	2096.457520	1010.410522	110.117294	1929.335693	1027.526611	249.151962	1909.730957	1002.751404	197.029999	1923.519043	994.771667	301.929382	1892.856079	940.175110	247.875488	2086.925781	705.968201	51.709698	2133.540771	604.032593	70.308754	2214.246338	751.267456	112.444702	2240.461426	641.828674	126.500107	2174.727783	496.064789	95.152832	2260.580078	513.865601	152.500473	2145.752197	332.347351	188.085251	2080.055420	209.424561	201.746384	2084.380127	277.423645	114.515511	1991.840088	86.980194	157.697388	1917.476929	63.736877	203.911850	2086.154785	74.753937	215.992828	2055.832520	48.233566	154.108124	2137.556641	30.536411	253.977325	2185.713379	35.507504	220.047043	2117.301514	13.132877	127.381462	2101.770752	713.357300	410.373962	2135.927979	606.543823	393.626740	2208.500488	715.535400	313.278809	2229.723389	618.755127	308.009949	2150.881348	479.494171	354.223602	2223.833984	441.069214	296.236389	1959.587769	439.778259	271.740631	1836.029297	451.423126	264.108673	1947.463867	485.707062	353.455139	1714.148315	483.944824	325.238678	1681.752441	546.550049	267.447296	1702.790771	373.641785	295.924286	1673.632202	424.214111	343.042847	1649.906616	312.592133	265.505585	1665.254639	289.946075	308.824188	1632.980957	359.934540	381.267365	2101.871826	845.554688	-45.432369	2202.938477	951.894226	469.241455
528	2.112000	2044.064331	1474.426758	217.097427	2091.045898	1458.566772	385.733917	2057.145752	1441.036743	46.412846	2179.693848	1360.955322	210.713821	1957.098511	1296.578125	231.170700	2001.659912	1258.255981	-57.176411	1955.122803	1133.293457	-101.174675	2039.544556	1014.261475	-78.362831	2098.411865	902.372131	-56.184391	2024.404297	1293.989258	485.838898	1963.783325	1180.682373	537.823120	2068.233887	1085.074463	510.515015	2156.022461	994.442139	487.217255	2139.607422	996.953918	322.685608	2108.658203	1009.279053	109.877991	1942.053345	1026.630493	249.829163	1922.474609	1001.931396	197.637115	1936.124268	993.792725	302.535461	1905.150391	939.522827	248.365631	2096.177002	704.337097	51.530102	2141.742432	601.865051	69.790695	2224.233643	748.191162	113.115677	2249.355957	637.906494	126.197716	2182.175293	492.786163	94.604843	2268.014160	509.289093	152.524048	2149.864502	330.694733	188.231110	2081.961426	208.518723	201.805283	2089.080078	275.330200	114.196289	1992.447754	87.233070	157.395355	1918.179199	64.704369	203.188797	2086.229980	74.495766	215.673965	2055.473389	47.823364	153.647507	2137.253906	30.370373	253.863556	2185.462646	35.824093	219.746796	2117.041748	13.004896	127.189301	2119.900635	714.335205	410.719543	2157.576172	608.245178	394.156647	2225.704102	718.711243	312.981232	2249.338379	622.528931	308.262573	2174.544434	481.444977	354.865540	2247.860352	444.591095	296.508728	1983.849854	440.269196	272.075989	1860.038574	450.820221	264.222229	1971.240601	485.465912	353.885712	1737.723755	481.555054	325.307861	1704.698364	544.435303	268.532196	1728.360229	371.614502	294.720642	1697.693359	421.180206	342.709808	1676.031128	310.273010	263.548676	1691.111084	287.089813	306.211548	1658.040894	355.801239	379.796753	2128.331299	845.504395	-44.912197	2205.116943	943.757324	474.188324
